<?xml version="1.0" encoding="utf-8"?>
<!-- Generator: Adobe Illustrator 14.0.0, SVG Export Plug-In . SVG Version: 6.00 Build 43363)  -->
<!DOCTYPE svg PUBLIC "-//W3C//DTD SVG 1.1//EN" "http://www.w3.org/Graphics/SVG/1.1/DTD/svg11.dtd">
<svg version="1.1" id="图层_1" xmlns="http://www.w3.org/2000/svg" xmlns:xlink="http://www.w3.org/1999/xlink" x="0px" y="0px"
	 width="100px" height="100px" viewBox="0 0 100 100" enable-background="new 0 0 100 100" xml:space="preserve">
<g>
	<g>
		<path d="M58.521,15.419c-5.331-0.318-10.652-0.294-15.99-0.225c-3.523,0.046-9.09-1.27-12.457,0.356
			c-3.177,1.535-2.799,4.712-3.067,7.777c-0.568,6.477-0.78,12.984-0.913,19.482c-0.126,6.178-0.187,12.375-0.007,18.553
			c0.088,3.032,0.68,5.625,3.362,7.319c2.926,1.849,7.411,1.358,10.69,1.43c6.322,0.138,12.65-0.374,18.972-0.42
			c1.108-0.008,1.479-1.438,0.168-1.428c-8.542,0.063-17.147,0.944-25.668,0.041c-5.771-0.612-5.573-5.951-5.64-10.524
			c-0.064-4.387-0.004-8.778,0.05-13.164c0.102-8.265,0.687-16.464,1.197-24.707c0.28-4.537,10.541-3.255,13.146-3.289
			c5.169-0.065,10.329-0.095,15.492,0.213C58.802,16.892,59.828,15.497,58.521,15.419L58.521,15.419z"/>
	</g>
</g>
<g>
	<g>
		<path d="M47.695,42.988c7.871,2.329,17.119,0.525,25.216,0.525c0.711,0,2.062-1.079,0.756-1.079
			c-7.931,0-17.143,1.78-24.785-0.482C48.281,41.774,46.612,42.667,47.695,42.988L47.695,42.988z"/>
	</g>
</g>
<g>
	<g>
		<path d="M68.997,39.25c2.462,1.648,5.292,2.821,8.231,3.248c-0.004-0.276-0.008-0.551-0.012-0.827
			c-2.503,1.85-5.578,2.358-7.681,4.8c-0.561,0.65,1.39,0.528,1.801,0.051c1.855-2.154,4.852-2.611,7.083-4.261
			c0.315-0.233,0.6-0.738-0.012-0.827c-2.829-0.411-5.508-1.542-7.876-3.128C69.999,37.949,68.214,38.726,68.997,39.25L68.997,39.25
			z"/>
	</g>
</g>
</svg>
