<?xml version="1.0" encoding="utf-8"?>
<!-- Generator: Adobe Illustrator 16.0.0, SVG Export Plug-In . SVG Version: 6.00 Build 0)  -->
<!DOCTYPE svg PUBLIC "-//W3C//DTD SVG 1.1//EN" "http://www.w3.org/Graphics/SVG/1.1/DTD/svg11.dtd">
<svg version="1.1" id="Layer_1" xmlns="http://www.w3.org/2000/svg" xmlns:xlink="http://www.w3.org/1999/xlink" x="0px" y="0px"
	 width="127px" height="127px" viewBox="0 0 127 127" enable-background="new 0 0 127 127" xml:space="preserve">
<g>
	<g id="oneness_15_">
		<circle fill="#88CDDA" cx="63.5" cy="63.5" r="63.5"/>
	</g>
	<path fill="#838283" d="M0.283,66.824"/>
	<g id="oneness_14_">
		<path fill="#859045" d="M125.286,78.216C118.648,106.189,93.505,127,63.5,127c-29.572,0-54.424-20.215-61.488-47.58
			c0,0,17.021-12.596,60.355-12.596C110.7,66.824,125.286,78.216,125.286,78.216z"/>
	</g>
	<ellipse fill="#747A3A" cx="63.5" cy="90.29" rx="26.629" ry="6.622"/>
	
		<linearGradient id="SVGID_1_" gradientUnits="userSpaceOnUse" x1="112.2891" y1="16.7681" x2="66.3011" y2="72.7854" gradientTransform="matrix(-1 0 0 1 154.4551 0)">
		<stop  offset="0" style="stop-color:#E32018"/>
		<stop  offset="0.441" style="stop-color:#C11A11"/>
		<stop  offset="1" style="stop-color:#901208"/>
	</linearGradient>
	<path fill="url(#SVGID_1_)" d="M63.5,90.29c1.664,0,26.629-30.062,26.629-53.442c0-13.963-9.986-26.721-26.629-26.721
		S36.871,22.838,36.871,36.848C36.871,60.228,61.836,90.29,63.5,90.29z"/>
	<ellipse fill="#861811" cx="63.5" cy="36.636" rx="11.652" ry="11.693"/>
	<ellipse fill="#B9DFDF" cx="63.5" cy="37.227" rx="10.621" ry="10.659"/>
</g>
</svg>
