<?xml version="1.0" encoding="utf-8"?>
<!-- Generator: Adobe Illustrator 14.0.0, SVG Export Plug-In . SVG Version: 6.00 Build 43363)  -->
<!DOCTYPE svg PUBLIC "-//W3C//DTD SVG 1.1//EN" "http://www.w3.org/Graphics/SVG/1.1/DTD/svg11.dtd">
<svg version="1.1" id="图层_1" xmlns="http://www.w3.org/2000/svg" xmlns:xlink="http://www.w3.org/1999/xlink" x="0px" y="0px"
	 width="100px" height="100px" viewBox="0 0 100 100" enable-background="new 0 0 100 100" xml:space="preserve">
<g>
	<g>
		<path d="M20.82,62.41c2.404-2.563,5.407-19.424,10.848-16.35c3.135,1.771,3.491,9.202,8.475,6.516
			c5.336-2.876,4.485-11.787,5.75-16.795c0.433-1.717,1.196-3.346,2.007-4.91c2.632-5.073,5.054-0.507,6.063,2.587
			c1.692,5.181,1.547,10.778,3.259,15.982c0.183,0.556,1.451,0.026,1.723-0.166c4.245-2.999,4.724-8.697,5.386-13.455
			c0.381-2.73,0.944-5.219,1.982-7.779c2.791-6.881,6.883,4.115,7.307,6.21c1.518,7.497,0.026,14.723,2.757,22.102
			c1.354,3.658,3.757,9.404,8.428,9.404c0.617,0,2.092-0.936,0.795-0.936c-6.909,0-9.287-15.07-9.518-19.795
			c-0.279-5.739,1.113-16.812-5.284-20.208c-3.637-1.932-5.621,1.587-6.832,4.574c-2.461,6.068-0.595,15.5-6.534,19.696
			c0.574-0.055,1.148-0.11,1.723-0.166c-1.265-3.846-1.813-24.548-9.371-21.594c-6.699,2.618-6.363,13.653-7.684,19.319
			c-0.384,1.646-2.204,7.164-4.59,4.542c-1.187-1.305-1.874-3.172-2.877-4.637c-1.281-1.872-3.515-2.298-5.578-1.545
			c-7.221,2.637-5.416,12.559-10.008,17.456C18.554,62.987,20.456,62.799,20.82,62.41L20.82,62.41z"/>
	</g>
</g>
</svg>
