<?xml version="1.0" encoding="utf-8"?>
<!-- Generator: Adobe Illustrator 14.0.0, SVG Export Plug-In . SVG Version: 6.00 Build 43363)  -->
<!DOCTYPE svg PUBLIC "-//W3C//DTD SVG 1.1//EN" "http://www.w3.org/Graphics/SVG/1.1/DTD/svg11.dtd">
<svg version="1.1" id="图层_1" xmlns="http://www.w3.org/2000/svg" xmlns:xlink="http://www.w3.org/1999/xlink" x="0px" y="0px"
	 width="100px" height="100px" viewBox="0 0 100 100" enable-background="new 0 0 100 100" xml:space="preserve">
<g>
	<g>
		<path d="M16.622,22.56c23.266,0,46.532,0,69.798,0c0.4,0,2.2-0.783,1.254-0.783c-23.266,0-46.532,0-69.798,0
			C17.475,21.776,15.675,22.56,16.622,22.56L16.622,22.56z"/>
	</g>
</g>
<g>
	<g>
		<path d="M16.12,41.191c11.399,0.852,22.806,0.308,34.215-0.022c11.775-0.34,23.746,1.141,35.456-0.318
			c0.498-0.062,2.098-0.946,0.834-0.789c-11.011,1.372-22.279,0.021-33.354,0.265c-11.977,0.263-23.934,0.96-35.901,0.066
			C16.953,40.362,15.15,41.119,16.12,41.191L16.12,41.191z"/>
	</g>
</g>
<g>
	<g>
		<path d="M15.514,61.746c11.68-0.611,23.369-0.493,35.06-0.388c11.649,0.104,23.564,0.986,35.147-0.472
			c0.876-0.11,1.65-1.098,0.303-0.928c-11.405,1.436-23.191,0.526-34.665,0.43c-11.691-0.099-23.378-0.223-35.06,0.389
			C15.673,60.81,14.22,61.814,15.514,61.746L15.514,61.746z"/>
	</g>
</g>
</svg>
