<?xml version="1.0" encoding="UTF-8" standalone="no"?>
<!-- Created with Inkscape (http://www.inkscape.org/) -->

<svg
   xmlns:dc="http://purl.org/dc/elements/1.1/"
   xmlns:cc="http://creativecommons.org/ns#"
   xmlns:rdf="http://www.w3.org/1999/02/22-rdf-syntax-ns#"
   xmlns:svg="http://www.w3.org/2000/svg"
   xmlns="http://www.w3.org/2000/svg"
   xmlns:xlink="http://www.w3.org/1999/xlink"
   xmlns:sodipodi="http://sodipodi.sourceforge.net/DTD/sodipodi-0.dtd"
   xmlns:inkscape="http://www.inkscape.org/namespaces/inkscape"
   width="10cm"
   height="10cm"
   id="svg2455"
   sodipodi:version="0.32"
   inkscape:version="0.48.0 r9654"
   sodipodi:docname="mag_map_unbusy_reallylowcolour_QR.svg"
   inkscape:export-filename="/home/matt/Programming/openstreetmap/misc_icons/mag_map_unbusy_reallylowcolour_QR.png"
   inkscape:export-xdpi="64.769997"
   inkscape:export-ydpi="64.769997"
   inkscape:output_extension="org.inkscape.output.svg.inkscape"
   version="1.1"
   style="display:inline">
  <defs
     id="defs3">
    <pattern
       inkscape:collect="always"
       xlink:href="#pattern2573"
       id="pattern2583" />
    <pattern
       inkscape:collect="always"
       xlink:href="#pattern2565"
       id="pattern2576" />
    <pattern
       inkscape:collect="always"
       xlink:href="#pattern2560"
       id="pattern2569" />
    <inkscape:perspective
       sodipodi:type="inkscape:persp3d"
       inkscape:vp_x="0 : 177.16536 : 1"
       inkscape:vp_y="0 : 1000 : 0"
       inkscape:vp_z="354.33072 : 177.16536 : 1"
       inkscape:persp3d-origin="177.16536 : 118.11024 : 1"
       id="perspective2471" />
    <linearGradient
       id="linearGradient2419">
      <stop
         style="stop-color:#000000;stop-opacity:0.50515461;"
         offset="0.0000000"
         id="stop2420" />
      <stop
         style="stop-color:#000000;stop-opacity:0.0000000;"
         offset="1.0000000"
         id="stop2421" />
    </linearGradient>
    <linearGradient
       id="linearGradient2411">
      <stop
         style="stop-color:#ffffff;stop-opacity:1.0000000;"
         offset="0.0000000"
         id="stop2412" />
      <stop
         style="stop-color:#ffffff;stop-opacity:0.0000000;"
         offset="1.0000000"
         id="stop2413" />
    </linearGradient>
    <radialGradient
       inkscape:collect="always"
       xlink:href="#linearGradient2411"
       id="radialGradient2415"
       cx="212.59842"
       cy="70.866119"
       fx="212.59842"
       fy="70.866119"
       r="35.433071"
       gradientUnits="userSpaceOnUse" />
    <linearGradient
       id="linearGradient1767">
      <stop
         style="stop-color:#3f3318;stop-opacity:1.0000000;"
         offset="0.0000000"
         id="stop1768" />
      <stop
         style="stop-color:#815f0e;stop-opacity:1.0000000;"
         offset="1.0000000"
         id="stop1769" />
    </linearGradient>
    <linearGradient
       id="linearGradient1754">
      <stop
         style="stop-color:#747474;stop-opacity:1.0000000;"
         offset="0.0000000"
         id="stop1755" />
      <stop
         style="stop-color:#bebebe;stop-opacity:1.0000000;"
         offset="0.50000000"
         id="stop1757" />
      <stop
         style="stop-color:#d5d5d5;stop-opacity:1.0000000;"
         offset="0.62500000"
         id="stop1759" />
      <stop
         style="stop-color:#818181;stop-opacity:1.0000000;"
         offset="0.75000000"
         id="stop1758" />
      <stop
         style="stop-color:#c3c3c3;stop-opacity:1.0000000;"
         offset="1.0000000"
         id="stop1756" />
    </linearGradient>
    <pattern
       patternUnits="userSpaceOnUse"
       width="28.945312"
       height="33.076172"
       patternTransform="translate(190.4901,70.84341)"
       id="pattern2568">
      <text
         xml:space="preserve"
         style="font-size:12.000000;font-style:normal;font-weight:normal;fill:#000000;fill-opacity:1.0000000;stroke:none;stroke-width:1.0000000pt;stroke-linecap:butt;stroke-linejoin:miter;stroke-opacity:1.0000000;font-family:Bitstream Vera Sans"
         x="189.69904"
         y="67.749657"
         id="text2569"
         transform="translate(-190.4901,-70.84341)"><tspan
           sodipodi:role="line"
           id="tspan2570"
           x="189.69904"
           y="67.749657" /><tspan
           sodipodi:role="line"
           id="tspan2576"
           x="189.69904"
           y="79.749657">0010</tspan><tspan
           sodipodi:role="line"
           id="tspan2578"
           x="189.69904"
           y="91.749657">0100</tspan><tspan
           sodipodi:role="line"
           id="tspan2580"
           x="189.69904"
           y="103.74966">0111</tspan><tspan
           sodipodi:role="line"
           id="tspan2582"
           x="189.69904"
           y="115.74966" /></text>
    </pattern>
    <pattern
       patternUnits="userSpaceOnUse"
       width="32.232422"
       height="37.876175"
       patternTransform="translate(183.7668,59.46841)"
       id="pattern2606">
      <text
         xml:space="preserve"
         style="font-size:12.000000;font-style:normal;font-weight:bold;fill:#000000;fill-opacity:1.0000000;stroke:none;stroke-width:1.0000000pt;stroke-linecap:butt;stroke-linejoin:miter;stroke-opacity:1.0000000;font-family:Bitstream Vera Sans;font-stretch:normal;font-variant:normal;text-anchor:middle;writing-mode:lr;"
         x="189.69904"
         y="67.749657"
         id="text2607"
         transform="translate(-173.5858,-58.84341)"
         sodipodi:linespacing="120%"><tspan
           x="189.69904"
           y="67.749657"
           sodipodi:role="line"
           id="tspan2608">0010</tspan><tspan
           x="189.69904"
           y="82.149657"
           sodipodi:role="line"
           id="tspan2610">0100</tspan><tspan
           x="189.69904"
           y="96.549658"
           sodipodi:role="line"
           id="tspan2612">0111</tspan></text>
    </pattern>
    <pattern
       patternUnits="userSpaceOnUse"
       width="32.232422"
       height="28.276169"
       patternTransform="translate(183.7668,59.46841)"
       id="pattern2623">
      <text
         xml:space="preserve"
         style="font-size:12.000000;font-style:normal;font-variant:normal;font-weight:bold;font-stretch:normal;fill:#000000;fill-opacity:1.0000000;stroke:none;stroke-width:1.0000000pt;stroke-linecap:butt;stroke-linejoin:miter;stroke-opacity:1.0000000;font-family:Bitstream Vera Sans;text-anchor:middle;writing-mode:lr;"
         x="189.69904"
         y="67.749657"
         id="text2624"
         transform="translate(-173.5858,-58.84341)"
         sodipodi:linespacing="80%"><tspan
           x="189.69904"
           y="67.749657"
           sodipodi:role="line"
           id="tspan2625">0010</tspan><tspan
           x="189.69904"
           y="77.349657"
           sodipodi:role="line"
           id="tspan2627">0100</tspan><tspan
           x="189.69904"
           y="86.949657"
           sodipodi:role="line"
           id="tspan2629">0111</tspan></text>
    </pattern>
    <pattern
       patternUnits="userSpaceOnUse"
       width="32.232422"
       height="25.876175"
       patternTransform="translate(183.7668,59.46841)"
       id="pattern2639">
      <text
         xml:space="preserve"
         style="font-size:12.000000;font-style:normal;font-variant:normal;font-weight:bold;font-stretch:normal;fill:#000000;fill-opacity:1.0000000;stroke:none;stroke-width:1.0000000pt;stroke-linecap:butt;stroke-linejoin:miter;stroke-opacity:1.0000000;font-family:Bitstream Vera Sans;text-anchor:middle;writing-mode:lr;"
         x="189.69904"
         y="67.749657"
         id="text2640"
         transform="translate(-173.5858,-58.84341)"
         sodipodi:linespacing="70%"><tspan
           x="189.69904"
           y="67.749657"
           sodipodi:role="line"
           id="tspan2641">0010</tspan><tspan
           x="189.69904"
           y="76.149656"
           sodipodi:role="line"
           id="tspan2643">0100</tspan><tspan
           x="189.69904"
           y="84.549656"
           sodipodi:role="line"
           id="tspan2645">0111</tspan></text>
    </pattern>
    <pattern
       patternUnits="userSpaceOnUse"
       width="96.697266"
       height="77.628510"
       patternTransform="translate(151.5402,41.65591)"
       id="pattern2692">
      <text
         xml:space="preserve"
         style="font-size:36.000000;font-style:normal;font-variant:normal;font-weight:bold;font-stretch:normal;fill:#000000;fill-opacity:1.0000000;stroke:none;stroke-width:1.0000000pt;stroke-linecap:butt;stroke-linejoin:miter;stroke-opacity:1.0000000;font-family:Bitstream Vera Sans;text-anchor:middle;writing-mode:lr;"
         x="189.69904"
         y="67.749657"
         id="text2693"
         transform="translate(-141.3592,-41.03091)"
         sodipodi:linespacing="70%"><tspan
           x="189.69904"
           y="67.749657"
           sodipodi:role="line"
           id="tspan2694">0010</tspan><tspan
           x="189.69904"
           y="92.949656"
           sodipodi:role="line"
           id="tspan2696">0100</tspan><tspan
           x="189.69904"
           y="118.14965"
           sodipodi:role="line"
           id="tspan2698">0111</tspan></text>
    </pattern>
    <pattern
       patternUnits="userSpaceOnUse"
       width="201.79236"
       height="201.79236"
       patternTransform="translate(-78.725091,-19.681293)"
       id="pattern2553">
      <path
         transform="translate(-124.01575,-17.716515)"
         d="M 325.80811,118.61269 A 100.89618,100.89618 0 1 1 124.01575,118.61269 A 100.89618,100.89618 0 1 1 325.80811,118.61269 z"
         sodipodi:ry="100.89618"
         sodipodi:rx="100.89618"
         sodipodi:cy="118.61269"
         sodipodi:cx="224.91193"
         id="path2615"
         style="opacity:0.35975611;fill:url(#pattern2692);fill-opacity:1;stroke:none;stroke-width:1.25;stroke-linecap:butt;stroke-linejoin:round;stroke-miterlimit:4;stroke-dasharray:10, 1.25;stroke-dashoffset:0;stroke-opacity:1"
         sodipodi:type="arc" />
    </pattern>
    <pattern
       patternUnits="userSpaceOnUse"
       width="201.79236"
       height="201.79236"
       patternTransform="translate(-73.305123,-24.559268)"
       id="pattern2560">
      <path
         transform="translate(-124.01575,-17.716515)"
         d="M 325.80811,118.61269 A 100.89618,100.89618 0 1 1 124.01575,118.61269 A 100.89618,100.89618 0 1 1 325.80811,118.61269 z"
         sodipodi:ry="100.89618"
         sodipodi:rx="100.89618"
         sodipodi:cy="118.61269"
         sodipodi:cx="224.91193"
         id="path2558"
         style="opacity:0.35975611;fill:url(#pattern2692);fill-opacity:1;stroke:none;stroke-width:1.25;stroke-linecap:butt;stroke-linejoin:round;stroke-miterlimit:4;stroke-dasharray:10, 1.25;stroke-dashoffset:0;stroke-opacity:1"
         sodipodi:type="arc" />
    </pattern>
    <pattern
       patternUnits="userSpaceOnUse"
       width="201.79236"
       height="201.79236"
       patternTransform="translate(-73.305122,-24.559269)"
       id="pattern2565">
      <rect
         id="rect2563"
         y="0"
         x="0"
         height="201.79236"
         width="201.79236"
         style="fill:url(#pattern2569);stroke:none" />
    </pattern>
    <pattern
       patternUnits="userSpaceOnUse"
       width="201.79236"
       height="201.79236"
       patternTransform="translate(-73.305122,-24.559269)"
       id="pattern2573">
      <rect
         id="rect2571"
         y="0"
         x="0"
         height="201.79236"
         width="201.79236"
         style="fill:url(#pattern2576);stroke:none" />
    </pattern>
    <pattern
       patternUnits="userSpaceOnUse"
       width="201.79236"
       height="201.79236"
       patternTransform="translate(-73.305122,-24.559269)"
       id="pattern2580">
      <rect
         id="rect2578"
         y="0"
         x="0"
         height="201.79236"
         width="201.79236"
         style="fill:url(#pattern2583);stroke:none" />
    </pattern>
    <linearGradient
       inkscape:collect="always"
       xlink:href="#linearGradient2419"
       id="linearGradient4191"
       gradientUnits="userSpaceOnUse"
       gradientTransform="scale(1.19593,0.836169)"
       x1="156.33752"
       y1="184.92068"
       x2="264.56921"
       y2="184.92068" />
    <inkscape:perspective
       id="perspective3956"
       inkscape:persp3d-origin="0.5 : 0.33333333 : 1"
       inkscape:vp_z="1 : 0.5 : 1"
       inkscape:vp_y="0 : 1000 : 0"
       inkscape:vp_x="0 : 0.5 : 1"
       sodipodi:type="inkscape:persp3d" />
    <inkscape:perspective
       id="perspective4031"
       inkscape:persp3d-origin="0.5 : 0.33333333 : 1"
       inkscape:vp_z="1 : 0.5 : 1"
       inkscape:vp_y="0 : 1000 : 0"
       inkscape:vp_x="0 : 0.5 : 1"
       sodipodi:type="inkscape:persp3d" />
  </defs>
  <sodipodi:namedview
     id="base"
     pagecolor="#ffffff"
     bordercolor="#666666"
     borderopacity="1.0"
     inkscape:pageopacity="0.0"
     inkscape:pageshadow="2"
     inkscape:zoom="1.524"
     inkscape:cx="177.16537"
     inkscape:cy="177.16537"
     inkscape:current-layer="layer1"
     showgrid="false"
     inkscape:grid-bbox="true"
     inkscape:grid-points="true"
     inkscape:window-width="1270"
     inkscape:window-height="745"
     inkscape:window-x="0"
     inkscape:window-y="0"
     showguides="true"
     inkscape:guide-bbox="true"
     inkscape:snap-global="false"
     inkscape:window-maximized="0">
    <inkscape:grid
       type="xygrid"
       id="grid3670" />
  </sodipodi:namedview>
  <metadata
     id="metadata4">
    <rdf:RDF>
      <cc:Work
         rdf:about="">
        <dc:format>image/svg+xml</dc:format>
        <dc:type
           rdf:resource="http://purl.org/dc/dcmitype/StillImage" />
        <dc:title></dc:title>
      </cc:Work>
    </rdf:RDF>
  </metadata>
  <g
     inkscape:groupmode="layer"
     id="layer4"
     inkscape:label="Map"
     style="display:inline">
    <path
       style="color:#000000;fill:#8bdc81;fill-opacity:1;fill-rule:nonzero;stroke:#8bdc81;stroke-width:0.1;stroke-miterlimit:4;stroke-opacity:1;stroke-dasharray:none;marker:none;visibility:visible;display:inline;overflow:visible;enable-background:accumulate"
       d="m 24.941657,22.868809 70,20 20.000003,70.000001 -70.000003,-20.000001 -20,-70 z"
       id="path3682"
       sodipodi:nodetypes="ccccc" />
    <path
       style="color:#000000;fill:#9ae091;fill-opacity:1;fill-rule:nonzero;stroke:#8bdc81;stroke-width:0.1;stroke-miterlimit:4;stroke-opacity:1;stroke-dasharray:none;marker:none;visibility:visible;display:inline;overflow:visible;enable-background:accumulate"
       d="m 164.5,23 -69.5625,19.875 20,70 1.5,-0.4375 C 118.0924,83.981227 129.724,56.026005 151.40625,34.34375 155.55019,30.199813 159.93266,26.416536 164.5,23 z m 14.6875,49.78125 c -3.67991,4.495725 -6.72345,9.307702 -9.1875,14.34375 1.09859,0.920012 2.47704,1.406254 4.125,1.40625 2.78771,9e-6 4.76751,-1.370905 5.96875,-4 0.51521,-1.127649 0.90416,-2.620565 1.1875,-4.4375 l -2.09375,-7.3125 z"
       id="path3686" />
    <path
       style="color:#000000;fill:#8bdc81;fill-opacity:1;fill-rule:nonzero;stroke:#8bdc81;stroke-width:0.1;stroke-miterlimit:4;stroke-opacity:1;stroke-dasharray:none;marker:none;visibility:visible;display:inline;overflow:visible;enable-background:accumulate"
       d="m 234.96875,45.5 c -1.52741,0.03603 -3.03999,0.121162 -4.5625,0.25 l 0,41.625 11.53125,0 0,9.0625 -8.375,0 c 1.63185,1.039282 3.11172,2.373885 4.375,3.96875 1.91829,2.40989 3.34249,5.33273 4.25,8.8125 l 8.5,2.4375 c 0.44681,-2.45232 1.1136,-4.67323 2,-6.65625 l -17,-59.5 c -0.23878,0.0034 -0.47997,-0.0056 -0.71875,0 z m -28.875,6.5625 c -4.3892,1.984142 -8.60876,4.422559 -12.625,7.3125 1.00379,3.376318 1.49998,7.300138 1.5,11.75 -4e-5,8.408564 -1.8112,14.890521 -5.4375,19.46875 -0.84097,1.056456 -1.76903,1.974114 -2.78125,2.78125 l 21.125,6.0625 c 1.06212,-1.172302 2.23627,-2.177794 3.53125,-3 l -4.9375,0 0,-9.0625 11.53125,0 0,-32.8125 -11.90625,2.46875 0,-4.96875 z M 181.8125,69.71875 c -0.91273,1.001554 -1.77832,2.028123 -2.625,3.0625 l 2.09375,7.3125 c 0.3817,-2.421174 0.56248,-5.430763 0.5625,-9.09375 0,-0.445592 -0.0257,-0.853969 -0.0312,-1.28125 z m 40.75,32.71875 c -0.94184,2e-5 -1.79754,0.17385 -2.5625,0.46875 l 7.8125,2.21875 c -1.20353,-1.77946 -2.93011,-2.68746 -5.25,-2.6875 z"
       id="path3790" />
    <path
       style="color:#000000;fill:#9ae091;fill-opacity:1;fill-rule:nonzero;stroke:#8bdc81;stroke-width:0.1;stroke-miterlimit:4;stroke-opacity:1;stroke-dasharray:none;marker:none;visibility:visible;display:inline;overflow:visible;enable-background:accumulate"
       d="m 235.6875,45.5 17,59.5 c 0.7632,-1.70739 1.69393,-3.22779 2.78125,-4.59375 1.69695,-2.142376 3.75803,-3.766395 6.125,-4.90625 -2.36697,-1.134214 -4.42806,-2.774454 -6.125,-4.90625 -3.62633,-4.578228 -5.4375,-11.060189 -5.4375,-19.46875 0,-8.431175 1.81116,-14.944386 5.4375,-19.5 0.87724,-1.107505 1.85061,-2.070145 2.90625,-2.90625 C 250.99652,46.482123 243.34948,45.392081 235.6875,45.5 z m 35.125,8.21875 c -2.74481,0.03692 -4.75443,1.307963 -5.9375,3.875 -1.20123,2.583794 -1.78126,7.060206 -1.78125,13.40625 -10e-6,6.414085 0.58002,10.902175 1.78125,13.53125 1.2012,2.629098 3.2521,4.000007 6.0625,4 2.7877,9e-6 4.79876,-1.370905 6,-4 1.20119,-2.629073 1.71874,-7.117166 1.71875,-13.53125 -4e-5,-6.346041 -0.51753,-10.822458 -1.71875,-13.40625 -0.0688,-0.152039 -0.14431,-0.29474 -0.21875,-0.4375 -1.93223,-1.239638 -3.89297,-2.396472 -5.90625,-3.4375 z m 20.71875,21.875 c -0.55277,6.246978 -2.24163,11.280802 -5.1875,15 -1.69696,2.131799 -3.76298,3.772035 -6.125,4.90625 2.362,1.139854 4.42804,2.763873 6.125,4.90625 0.72355,0.90898 1.39599,1.87587 1.96875,2.9375 l 8,-2.3125 c 0.15562,-0.21232 0.30586,-0.42036 0.46875,-0.625 1.69695,-2.142376 3.75803,-3.766395 6.125,-4.90625 -2.36697,-1.134214 -4.42807,-2.774454 -6.125,-4.90625 -2.94689,-3.720425 -4.69787,-8.750125 -5.25,-15 z M 270.9375,102.4375 c -2.81041,5e-5 -4.8613,1.29988 -6.0625,3.90625 -0.48297,1.03885 -0.86683,2.39438 -1.15625,4.03125 l 13.3125,-3.8125 c -0.0305,-0.07 -0.0624,-0.15123 -0.0937,-0.21875 -1.17859,-2.60637 -3.1896,-3.9062 -6,-3.90625 z"
       id="path3792" />
    <path
       style="color:#000000;fill:#8bdc81;fill-opacity:1;fill-rule:nonzero;stroke:#8bdc81;stroke-width:0.1;stroke-miterlimit:4;stroke-opacity:1;stroke-dasharray:none;marker:none;visibility:visible;display:inline;overflow:visible;enable-background:accumulate"
       d="m 296.3125,101.03125 -8,2.3125 c 1.76294,3.26766 2.80377,7.26552 3.21875,12 0.51885,-5.92937 2.11703,-10.67761 4.78125,-14.3125 z m 12.84375,2.125 c -1.23587,0.64028 -2.21324,1.68382 -2.90625,3.1875 -1.20124,2.5838 -1.81251,6.99771 -1.8125,13.34375 -10e-6,6.41409 0.61126,10.99593 1.8125,13.625 0.68257,1.49394 1.6344,2.5479 2.84375,3.1875 2.55427,-10.96168 2.57905,-22.3701 0.0625,-33.34375 z m -32.125,3.40625 -13.3125,3.8125 c -0.43042,2.4343 -0.62501,5.51797 -0.625,9.3125 -10e-6,6.41409 0.58002,10.99593 1.78125,13.625 1.2012,2.6291 3.2521,3.93752 6.0625,3.9375 2.7877,2e-5 4.79876,-1.3084 6,-3.9375 1.20119,-2.62908 1.71874,-7.21091 1.71875,-13.625 -4e-5,-6.1802 -0.48947,-10.51558 -1.625,-13.125 z m 14.5,17.8125 c -0.55277,6.24698 -2.24163,11.18705 -5.1875,14.90625 -2.03152,2.5521 -4.54659,4.40888 -7.53125,5.53125 l 0,25.53125 12.625,-3.625 c 0.25315,-7.51495 1.99496,-13.41806 5.34375,-17.625 1.69695,-2.14238 3.75803,-3.7664 6.125,-4.90625 -2.36697,-1.13422 -4.42807,-2.77446 -6.125,-4.90625 -2.94689,-3.72043 -4.69787,-8.65638 -5.25,-14.90625 z m -40.84375,3.4375 -15.75,55.0625 31.46875,-9 0,-21.84375 -11.90625,2.5 0,-8.9375 7,-1.4375 c -2.3357,-1.1327 -4.35182,-2.76519 -6.03125,-4.875 -2.37556,-2.99914 -3.95742,-6.8307 -4.78125,-11.46875 z"
       id="path3806" />
    <path
       style="color:#000000;fill:#79d76e;fill-opacity:1;fill-rule:nonzero;stroke:#8bdc81;stroke-width:0.1;stroke-miterlimit:4;stroke-opacity:1;stroke-dasharray:none;marker:none;visibility:visible;display:inline;overflow:visible;enable-background:accumulate"
       d="m 186.75,93.375 c -0.7581,0.604501 -1.55757,1.126108 -2.40625,1.59375 l -2.375,8.28125 0,32.90625 11.53125,0 0,9 -11.53125,0 0,22.5625 36.03125,10.3125 0,-26 -11.90625,2.5 0,-8.9375 7,-1.4375 c -2.3357,-1.1327 -4.3518,-2.76519 -6.03125,-4.875 -3.62633,-4.57823 -5.4375,-11.06019 -5.4375,-19.46875 0,-8.43118 1.81118,-14.85062 5.4375,-19.40625 0.26521,-0.33482 0.53093,-0.657971 0.8125,-0.96875 L 186.75,93.375 z m 33.25,9.53125 c -1.51766,0.58507 -2.70136,1.70459 -3.5,3.4375 -1.20124,2.5838 -1.84378,6.99771 -1.84375,13.34375 -3e-5,6.41409 0.64251,10.99593 1.84375,13.625 1.20119,2.6291 3.25208,3.93752 6.0625,3.9375 2.7877,2e-5 4.73625,-1.3084 5.9375,-3.9375 1.2012,-2.62908 1.78122,-7.21091 1.78125,-13.625 -3e-5,-6.34604 -0.58005,-10.75995 -1.78125,-13.34375 -0.20569,-0.45488 -0.43304,-0.84253 -0.6875,-1.21875 L 220,102.90625 z m 22.1875,6.3125 c 0.80803,3.09831 1.18748,6.62262 1.1875,10.59375 -4e-5,8.40856 -1.81121,14.89052 -5.4375,19.46875 -2.03154,2.5521 -4.54657,4.40888 -7.53125,5.53125 l 0,36.78125 4.53125,1.28125 15.75,-55.0625 c -0.43376,-2.442 -0.65625,-5.09978 -0.65625,-8 0,-2.96706 0.20473,-5.67808 0.65625,-8.15625 l -8.5,-2.4375 z"
       id="path3808" />
    <path
       style="color:#000000;fill:#8bdc81;fill-opacity:1;fill-rule:nonzero;stroke:#8bdc81;stroke-width:0.1;stroke-miterlimit:4;stroke-opacity:1;stroke-dasharray:none;marker:none;visibility:visible;display:inline;overflow:visible;enable-background:accumulate"
       d="m 184.34375,94.96875 c -0.75799,0.415714 -1.54683,0.782861 -2.375,1.09375 l 0,7.1875 2.375,-8.28125 z m -14.78125,8.375 -5.53125,1.125 c -2.18624,10.45337 -2.07027,21.26811 0.3125,31.6875 l 5.21875,0 0,-32.8125 z m -53.125,9.09375 -1.5,0.4375 -20,70 33.8125,-9.65625 c -9.43265,-19.03184 -13.5188,-40.03882 -12.3125,-60.78125 z"
       id="path3812" />
    <path
       style="color:#000000;fill:#79d76e;fill-opacity:1;fill-rule:nonzero;stroke:#8bdc81;stroke-width:0.1;stroke-miterlimit:4;stroke-opacity:1;stroke-dasharray:none;marker:none;visibility:visible;display:inline;overflow:visible;enable-background:accumulate"
       d="m 94.941657,182.86881 20.000003,-70 -70.000003,-20.000001 -20,70.000001 70,20 z"
       id="path3814"
       sodipodi:nodetypes="ccccc" />
    <path
       style="color:#000000;fill:#8bdc81;fill-opacity:1;fill-rule:nonzero;stroke:#8bdc81;stroke-width:0.1;stroke-miterlimit:4;stroke-opacity:1;stroke-dasharray:none;marker:none;visibility:visible;display:inline;overflow:visible;enable-background:accumulate"
       d="m 24.9375,162.875 20,70 6.375,1.8125 37.84375,-37.84375 c 2.429556,-2.42956 5.159516,-4.39869 8.0625,-5.9375 l -2.28125,-8.03125 -70,-20 z"
       id="path3838" />
    <path
       style="color:#000000;fill:#9ae091;fill-opacity:1;fill-rule:nonzero;stroke:#8bdc81;stroke-width:0.1;stroke-miterlimit:4;stroke-opacity:1;stroke-dasharray:none;marker:none;visibility:visible;display:inline;overflow:visible;enable-background:accumulate"
       d="m 128.75,173.21875 -33.8125,9.65625 2.28125,8.03125 c 7.88192,-4.17805 17.10926,-5.08994 25.59375,-2.71875 l 9.0625,-9.0625 c -1.1026,-1.94426 -2.13871,-3.91626 -3.125,-5.90625 z m 48.53125,51.28125 -9.0625,9.0625 c 0.35803,1.27034 0.63199,2.54704 0.84375,3.84375 l 15.875,-4.53125 -1.46875,-5.09375 c -2.08738,-1.02807 -4.15018,-2.12555 -6.1875,-3.28125 z"
       id="path3840" />
    <path
       style="color:#000000;fill:#8bdc81;fill-opacity:1;fill-rule:nonzero;stroke:#8bdc81;stroke-width:0.1;stroke-miterlimit:4;stroke-opacity:1;stroke-dasharray:none;marker:none;visibility:visible;display:inline;overflow:visible;enable-background:accumulate"
       d="m 181.96875,167.71875 0,2.03125 c 0.742,0.81704 1.49387,1.61887 2.28125,2.40625 6.61874,6.61874 14.17571,11.70981 22.21875,15.3125 l 0,-2.59375 11.53125,0 0,-6.84375 -36.03125,-10.3125 z m 48.4375,13.875 0,3.28125 5.09375,0 -0.5625,-2 -4.53125,-1.28125 z m -46.9375,46.1875 1.46875,5.09375 70,20 -3.875,-13.53125 c -22.91257,2.68291 -46.45645,-1.15199 -67.59375,-11.5625 z"
       id="path3844" />
    <path
       style="color:#000000;fill:#9ae091;fill-opacity:1;fill-rule:nonzero;stroke:#8bdc81;stroke-width:0.1;stroke-miterlimit:4;stroke-opacity:1;stroke-dasharray:none;marker:none;visibility:visible;display:inline;overflow:visible;enable-background:accumulate"
       d="m 291.4375,166.71875 -12.625,3.625 0,10.5 c 3.66789,-2.5329 7.16865,-5.41865 10.4375,-8.6875 0.74457,-0.74456 1.45168,-1.51093 2.15625,-2.28125 -0.01,-0.42912 -0.0312,-0.8416 -0.0312,-1.28125 0,-0.6453 0.0416,-1.25219 0.0625,-1.875 z m -25.03125,7.15625 -31.46875,9 0.5625,2 6.4375,0 0,8.875 c 4.35157,-0.30418 8.6827,-0.99213 12.9375,-2.0625 l 0,-6.8125 11.53125,0 0,-11 z m 51.65625,34.9375 c -19.19452,17.52324 -42.74675,27.69135 -67,30.53125 l 3.875,13.53125 70,-20 -6.875,-24.0625 z"
       id="path3846" />
    <path
       style="color:#000000;fill:#8bdc81;fill-opacity:1;fill-rule:nonzero;stroke:#8bdc81;stroke-width:0.1;stroke-miterlimit:4;stroke-opacity:1;stroke-dasharray:none;marker:none;visibility:visible;display:inline;overflow:visible;enable-background:accumulate"
       d="m 324.94166,232.86881 -70,20 -20,70 70,-20 20,-70 z"
       id="path3852"
       sodipodi:nodetypes="ccccc" />
    <path
       style="color:#000000;fill:#79d76e;fill-opacity:1;fill-rule:nonzero;stroke:#8bdc81;stroke-width:0.1;stroke-miterlimit:4;stroke-opacity:1;stroke-dasharray:none;marker:none;visibility:visible;display:inline;overflow:visible;enable-background:accumulate"
       d="m 234.94166,322.86881 20,-70 -70,-20 -20,70 70,20 z"
       id="path3854"
       sodipodi:nodetypes="ccccc" />
    <path
       style="color:#000000;fill:#8bdc81;fill-opacity:1;fill-rule:nonzero;stroke:#8bdc81;stroke-width:0.1;stroke-miterlimit:4;stroke-opacity:1;stroke-dasharray:none;marker:none;visibility:visible;display:inline;overflow:visible;enable-background:accumulate"
       d="m 184.9375,232.875 -15.875,4.53125 c 1.72744,10.57779 -1.40388,21.81013 -9.46875,29.875 l -52,51.96875 57.34375,-16.375 20,-70 z"
       id="path3858" />
    <path
       style="color:#000000;fill:#79d76e;fill-opacity:1;fill-rule:nonzero;stroke:#8bdc81;stroke-width:0.1;stroke-miterlimit:4;stroke-opacity:1;stroke-dasharray:none;marker:none;visibility:visible;display:inline;overflow:visible;enable-background:accumulate"
       d="m 44.9375,232.875 -3.28125,11.46875 9.65625,-9.65625 -6.375,-1.8125 z"
       id="path3860" />
  </g>
  <g
     inkscape:label="MagnifyingGlass"
     inkscape:groupmode="layer"
     id="layer1"
     style="display:inline">
    <g
       id="g3071">
      <path
         transform="translate(2.624672,-1.312336)"
         d="m 335.30184,120.73491 a 101.04987,101.04987 0 1 1 -202.09974,0 101.04987,101.04987 0 1 1 202.09974,0 z"
         sodipodi:ry="101.04987"
         sodipodi:rx="101.04987"
         sodipodi:cy="120.73491"
         sodipodi:cx="234.25197"
         id="path4121"
         style="fill:#ffffff;fill-opacity:1;stroke:#000000;stroke-width:0.2;stroke-linecap:round;stroke-linejoin:round;stroke-miterlimit:4;stroke-opacity:1;stroke-dasharray:none;stroke-dashoffset:1.99999996"
         sodipodi:type="arc" />
      <path
         id="path3996"
         d="M 236.875 18.375 C 235.47762 18.375 234.10234 18.412566 232.71875 18.46875 L 232.71875 24.09375 L 235.84375 24.09375 L 238.96875 24.09375 L 238.96875 27.1875 L 238.96875 30.3125 L 242.09375 30.3125 L 245.1875 30.3125 L 245.1875 24.09375 L 245.1875 18.71875 C 242.44781 18.495815 239.67215 18.375 236.875 18.375 z M 238.96875 30.3125 L 235.84375 30.3125 L 232.71875 30.3125 L 232.71875 27.1875 L 232.71875 24.09375 L 229.625 24.09375 L 226.5 24.09375 L 226.5 30.3125 L 226.5 36.5 L 232.71875 36.5 L 238.96875 36.5 L 238.96875 33.40625 L 238.96875 30.3125 z M 238.96875 36.5 L 238.96875 39.625 L 238.96875 42.71875 L 232.71875 42.71875 L 226.5 42.71875 L 226.5 39.625 L 226.5 36.5 L 220.25 36.5 L 214.03125 36.5 L 214.03125 42.71875 L 214.03125 48.9375 L 229.625 48.9375 L 245.1875 48.9375 L 245.1875 42.71875 L 245.1875 36.5 L 242.09375 36.5 L 238.96875 36.5 z M 226.5 24.09375 L 226.5 20.96875 L 226.5 18.90625 C 222.25421 19.338755 218.10499 20.027068 214.03125 20.96875 L 214.03125 24.09375 L 220.25 24.09375 L 226.5 24.09375 z M 252.03125 19.5 L 252.03125 24.09375 L 258.25 24.09375 L 264.5 24.09375 L 264.5 22.21875 C 260.44296 21.067837 256.27879 20.139436 252.03125 19.5 z M 264.5 24.09375 L 264.5 30.3125 L 264.5 36.5 L 270.71875 36.5 L 276.96875 36.5 L 276.96875 33.40625 L 276.96875 30.3125 L 273.84375 30.3125 L 270.71875 30.3125 L 270.71875 27.1875 L 270.71875 24.1875 C 270.62586 24.154491 270.53051 24.126495 270.4375 24.09375 L 267.625 24.09375 L 264.5 24.09375 z M 276.96875 30.3125 L 280.09375 30.3125 L 283.1875 30.3125 L 283.1875 29.59375 C 281.15196 28.542163 279.08201 27.570602 276.96875 26.65625 L 276.96875 27.1875 L 276.96875 30.3125 z M 276.96875 36.5 L 276.96875 39.625 L 276.96875 42.71875 L 270.71875 42.71875 L 264.5 42.71875 L 264.5 39.625 L 264.5 36.5 L 258.25 36.5 L 252.03125 36.5 L 252.03125 42.71875 L 252.03125 48.9375 L 267.625 48.9375 L 283.1875 48.9375 L 283.1875 42.71875 L 283.1875 36.5 L 280.09375 36.5 L 276.96875 36.5 z M 207.1875 22.8125 C 205.08437 23.457822 203.01097 24.161087 200.96875 24.9375 L 200.96875 27.1875 L 200.96875 30.3125 L 204.09375 30.3125 L 207.1875 30.3125 L 207.1875 24.09375 L 207.1875 22.8125 z M 200.96875 30.3125 L 197.84375 30.3125 L 194.71875 30.3125 L 194.71875 27.5625 C 192.59796 28.537096 190.53863 29.573417 188.5 30.6875 L 188.5 36.5 L 194.71875 36.5 L 200.96875 36.5 L 200.96875 33.40625 L 200.96875 30.3125 z M 200.96875 36.5 L 200.96875 39.625 L 200.96875 42.71875 L 194.71875 42.71875 L 188.5 42.71875 L 188.5 39.625 L 188.5 36.5 L 182.25 36.5 L 179.125 36.5 C 178.08193 37.227688 177.04507 37.953222 176.03125 38.71875 L 176.03125 42.71875 L 176.03125 48.9375 L 191.625 48.9375 L 207.1875 48.9375 L 207.1875 42.71875 L 207.1875 36.5 L 204.09375 36.5 L 200.96875 36.5 z M 170.65625 54.625 L 170.65625 76.46875 L 170.65625 98.28125 L 192.40625 98.28125 L 214.15625 98.28125 L 214.15625 76.46875 L 214.15625 54.625 L 192.40625 54.625 L 170.65625 54.625 z M 220.34375 54.625 L 220.34375 67.09375 L 220.34375 79.59375 L 223.46875 79.59375 L 226.5625 79.59375 L 226.5625 76.46875 L 226.5625 73.34375 L 229.6875 73.34375 L 232.78125 73.34375 L 232.78125 76.46875 L 232.78125 79.59375 L 229.6875 79.59375 L 226.5625 79.59375 L 226.5625 82.6875 L 226.5625 85.8125 L 229.6875 85.8125 L 232.78125 85.8125 L 232.78125 92.0625 L 232.78125 98.28125 L 235.875 98.28125 L 239 98.28125 L 239 85.8125 L 239 73.34375 L 242.09375 73.34375 L 245.21875 73.34375 L 245.21875 88.9375 L 245.21875 104.53125 L 242.09375 104.53125 L 239 104.53125 L 239 107.65625 L 239 110.75 L 245.21875 110.75 L 251.40625 110.75 L 251.40625 88.9375 L 251.40625 67.09375 L 248.3125 67.09375 L 245.21875 67.09375 L 245.21875 64 L 245.21875 60.875 L 242.09375 60.875 L 239 60.875 L 239 64 L 239 67.09375 L 235.875 67.09375 L 232.78125 67.09375 L 232.78125 64 L 232.78125 60.875 L 229.6875 60.875 L 226.5625 60.875 L 226.5625 57.75 L 226.5625 54.625 L 223.46875 54.625 L 220.34375 54.625 z M 245.21875 60.875 L 248.3125 60.875 L 251.40625 60.875 L 251.40625 57.75 L 251.40625 54.625 L 248.3125 54.625 L 245.21875 54.625 L 245.21875 57.75 L 245.21875 60.875 z M 239 110.75 L 235.875 110.75 L 232.78125 110.75 L 232.78125 113.875 L 232.78125 117 L 235.875 117 L 239 117 L 239 113.875 L 239 110.75 z M 226.5625 85.8125 L 223.46875 85.8125 L 220.34375 85.8125 L 220.34375 92.0625 L 220.34375 98.28125 L 223.46875 98.28125 L 226.5625 98.28125 L 226.5625 92.0625 L 226.5625 85.8125 z M 257.625 54.625 L 257.625 76.46875 L 257.625 98.28125 L 279.375 98.28125 L 301.125 98.28125 L 301.125 76.46875 L 301.125 54.625 L 279.375 54.625 L 257.625 54.625 z M 306.78125 60.28125 L 306.78125 69.625 L 306.78125 79 L 313 79 L 319.1875 79 L 319.1875 75.875 L 319.1875 72.75 L 316.09375 72.75 L 313 72.75 L 313 66.53125 L 313 60.28125 L 309.875 60.28125 L 306.78125 60.28125 z M 319.1875 72.75 L 322.3125 72.75 L 325.40625 72.75 L 325.40625 70.6875 C 324.62869 69.277752 323.84191 67.898864 323 66.53125 L 322.3125 66.53125 L 319.1875 66.53125 L 319.1875 69.625 L 319.1875 72.75 z M 325.40625 72.75 L 325.40625 75.875 L 325.40625 79 L 329.5 79 C 328.5761 76.886488 327.59262 74.785146 326.53125 72.75 L 325.40625 72.75 z M 325.40625 79 L 322.3125 79 L 319.1875 79 L 319.1875 82.09375 L 319.1875 85.21875 L 322.3125 85.21875 L 325.40625 85.21875 L 325.40625 82.09375 L 325.40625 79 z M 319.1875 85.21875 L 316.09375 85.21875 L 313 85.21875 L 313 88.34375 L 313 91.46875 L 316.09375 91.46875 L 319.1875 91.46875 L 319.1875 88.34375 L 319.1875 85.21875 z M 319.1875 91.46875 L 319.1875 94.5625 L 319.1875 97.6875 L 328.53125 97.6875 L 335.59375 97.6875 C 334.65853 93.420364 333.42452 89.265214 331.96875 85.21875 L 331.625 85.21875 L 331.625 88.34375 L 331.625 91.46875 L 325.40625 91.46875 L 319.1875 91.46875 z M 176.875 60.875 L 192.40625 60.875 L 207.9375 60.875 L 207.9375 76.46875 L 207.9375 92.0625 L 192.40625 92.0625 L 176.875 92.0625 L 176.875 76.46875 L 176.875 60.875 z M 263.84375 60.875 L 279.375 60.875 L 294.90625 60.875 L 294.90625 76.46875 L 294.90625 92.0625 L 279.375 92.0625 L 263.84375 92.0625 L 263.84375 76.46875 L 263.84375 60.875 z M 152.25 66.53125 L 152.25 69.625 L 152.25 72.75 L 155.375 72.75 L 158.46875 72.75 L 158.46875 79 L 158.46875 85.21875 L 155.375 85.21875 L 152.25 85.21875 L 152.25 91.46875 L 152.25 97.6875 L 158.46875 97.6875 L 164.6875 97.6875 L 164.6875 82.09375 L 164.6875 66.53125 L 158.46875 66.53125 L 152.25 66.53125 z M 152.25 85.21875 L 152.25 79 L 152.25 72.75 L 149.15625 72.75 L 147.21875 72.75 C 146.82332 73.50823 146.43911 74.293136 146.0625 75.0625 L 146.0625 75.875 L 146.0625 79 L 144.25 79 C 143.35898 81.038661 142.53897 83.112575 141.78125 85.21875 L 146.0625 85.21875 L 152.25 85.21875 z M 183.09375 67.09375 L 183.09375 76.46875 L 183.09375 85.8125 L 192.40625 85.8125 L 201.71875 85.8125 L 201.71875 76.46875 L 201.71875 67.09375 L 192.40625 67.09375 L 183.09375 67.09375 z M 270.0625 67.09375 L 270.0625 76.46875 L 270.0625 85.8125 L 279.375 85.8125 L 288.6875 85.8125 L 288.6875 76.46875 L 288.6875 67.09375 L 279.375 67.09375 L 270.0625 67.09375 z M 139.84375 91.125 C 139.2156 93.282964 138.64171 95.472508 138.15625 97.6875 L 139.84375 97.6875 L 139.84375 91.46875 L 139.84375 91.125 z M 306.78125 98.28125 L 306.78125 107.625 L 306.78125 117 L 313 117 L 319.1875 117 L 319.1875 113.875 L 319.1875 110.75 L 316.09375 110.75 L 313 110.75 L 313 104.53125 L 313 98.28125 L 309.875 98.28125 L 306.78125 98.28125 z M 319.1875 110.75 L 322.3125 110.75 L 325.40625 110.75 L 325.40625 107.625 L 325.40625 104.53125 L 322.3125 104.53125 L 319.1875 104.53125 L 319.1875 107.625 L 319.1875 110.75 z M 325.40625 110.75 L 325.40625 113.875 L 325.40625 117 L 331.625 117 L 337.84375 117 L 337.84375 115.5 C 337.70208 111.78757 337.34423 108.13056 336.8125 104.53125 L 331.625 104.53125 L 331.625 107.625 L 331.625 110.75 L 328.53125 110.75 L 325.40625 110.75 z M 337.84375 117 L 337.84375 120.09375 L 337.84375 123.21875 C 337.89029 121.95881 337.9375 120.70882 337.9375 119.4375 C 337.9375 118.62777 337.92519 117.80517 337.90625 117 L 337.84375 117 z M 337.84375 123.21875 L 334.71875 123.21875 L 331.625 123.21875 L 331.625 126.34375 L 331.625 129.46875 L 325.40625 129.46875 L 319.1875 129.46875 L 319.1875 132.5625 L 319.1875 135.6875 L 328.53125 135.6875 L 336.59375 135.6875 C 337.24924 131.63732 337.68489 127.50887 337.84375 123.3125 L 337.84375 123.21875 z M 319.1875 129.46875 L 319.1875 126.34375 L 319.1875 123.21875 L 316.09375 123.21875 L 313 123.21875 L 313 126.34375 L 313 129.46875 L 316.09375 129.46875 L 319.1875 129.46875 z M 319.1875 123.21875 L 322.3125 123.21875 L 325.40625 123.21875 L 325.40625 120.09375 L 325.40625 117 L 322.3125 117 L 319.1875 117 L 319.1875 120.09375 L 319.1875 123.21875 z M 136.9375 104.53125 C 136.33433 108.61419 135.97444 112.77331 135.875 117 L 139.84375 117 L 139.84375 113.875 L 139.84375 110.75 L 142.9375 110.75 L 146.0625 110.75 L 146.0625 107.625 L 146.0625 104.53125 L 139.84375 104.53125 L 136.9375 104.53125 z M 146.0625 110.75 L 146.0625 113.875 L 146.0625 117 L 142.9375 117 L 139.84375 117 L 139.84375 120.09375 L 139.84375 123.21875 L 146.0625 123.21875 L 152.25 123.21875 L 152.25 117 L 152.25 110.75 L 149.15625 110.75 L 146.0625 110.75 z M 152.25 110.75 L 155.375 110.75 L 158.46875 110.75 L 158.46875 117 L 158.46875 123.21875 L 155.375 123.21875 L 152.25 123.21875 L 152.25 129.46875 L 152.25 135.6875 L 158.46875 135.6875 L 164.6875 135.6875 L 164.6875 120.09375 L 164.6875 104.53125 L 158.46875 104.53125 L 152.25 104.53125 L 152.25 107.625 L 152.25 110.75 z M 139.84375 123.21875 L 136.71875 123.21875 L 135.90625 123.21875 C 136.06244 127.44749 136.49586 131.60703 137.15625 135.6875 L 139.84375 135.6875 L 139.84375 129.46875 L 139.84375 123.21875 z M 170.65625 104.53125 L 170.65625 120.125 L 170.65625 135.6875 L 176.875 135.6875 L 183.09375 135.6875 L 183.09375 132.59375 L 183.09375 129.46875 L 179.96875 129.46875 L 176.875 129.46875 L 176.875 123.21875 L 176.875 117 L 179.96875 117 L 183.09375 117 L 183.09375 110.75 L 183.09375 104.53125 L 176.875 104.53125 L 170.65625 104.53125 z M 183.09375 117 L 183.09375 123.21875 L 183.09375 129.46875 L 186.1875 129.46875 L 189.28125 129.46875 L 189.28125 126.34375 L 189.28125 123.21875 L 192.40625 123.21875 L 195.5 123.21875 L 195.5 120.125 L 195.5 117 L 189.28125 117 L 183.09375 117 z M 195.5 117 L 198.625 117 L 201.71875 117 L 201.71875 113.875 L 201.71875 110.75 L 207.9375 110.75 L 214.15625 110.75 L 214.15625 107.65625 L 214.15625 104.53125 L 204.8125 104.53125 L 195.5 104.53125 L 195.5 110.75 L 195.5 117 z M 214.15625 110.75 L 214.15625 113.875 L 214.15625 117 L 217.25 117 L 220.34375 117 L 220.34375 113.875 L 220.34375 110.75 L 217.25 110.75 L 214.15625 110.75 z M 214.15625 117 L 211.03125 117 L 207.9375 117 L 207.9375 120.125 L 207.9375 123.21875 L 211.03125 123.21875 L 214.15625 123.21875 L 214.15625 120.125 L 214.15625 117 z M 214.15625 123.21875 L 214.15625 126.34375 L 214.15625 129.46875 L 217.25 129.46875 L 220.34375 129.46875 L 220.34375 135.6875 L 220.34375 141.9375 L 223.46875 141.9375 L 226.5625 141.9375 L 226.5625 132.59375 L 226.5625 123.21875 L 220.34375 123.21875 L 214.15625 123.21875 z M 214.15625 129.46875 L 211.03125 129.46875 L 207.9375 129.46875 L 207.9375 132.59375 L 207.9375 135.6875 L 211.03125 135.6875 L 214.15625 135.6875 L 214.15625 132.59375 L 214.15625 129.46875 z M 207.9375 129.46875 L 207.9375 126.34375 L 207.9375 123.21875 L 201.71875 123.21875 L 195.5 123.21875 L 195.5 126.34375 L 195.5 129.46875 L 192.40625 129.46875 L 189.28125 129.46875 L 189.28125 132.59375 L 189.28125 135.6875 L 195.5 135.6875 L 201.71875 135.6875 L 201.71875 132.59375 L 201.71875 129.46875 L 204.8125 129.46875 L 207.9375 129.46875 z M 263.84375 104.53125 L 263.84375 107.65625 L 263.84375 110.75 L 266.9375 110.75 L 270.0625 110.75 L 270.0625 107.65625 L 270.0625 104.53125 L 266.9375 104.53125 L 263.84375 104.53125 z M 270.0625 110.75 L 270.0625 117 L 270.0625 123.21875 L 276.28125 123.21875 L 282.46875 123.21875 L 282.46875 120.125 L 282.46875 117 L 285.59375 117 L 288.6875 117 L 288.6875 113.875 L 288.6875 110.75 L 294.90625 110.75 L 301.125 110.75 L 301.125 107.65625 L 301.125 104.53125 L 288.6875 104.53125 L 276.28125 104.53125 L 276.28125 107.65625 L 276.28125 110.75 L 273.15625 110.75 L 270.0625 110.75 z M 288.6875 117 L 288.6875 120.125 L 288.6875 123.21875 L 291.8125 123.21875 L 294.90625 123.21875 L 294.90625 120.125 L 294.90625 117 L 291.8125 117 L 288.6875 117 z M 251.40625 117 L 251.40625 120.125 L 251.40625 123.21875 L 242.09375 123.21875 L 232.78125 123.21875 L 232.78125 126.34375 L 232.78125 129.46875 L 239 129.46875 L 245.21875 129.46875 L 245.21875 132.59375 L 245.21875 135.6875 L 248.3125 135.6875 L 251.40625 135.6875 L 251.40625 132.59375 L 251.40625 129.46875 L 254.53125 129.46875 L 257.625 129.46875 L 257.625 126.34375 L 257.625 123.21875 L 260.75 123.21875 L 263.84375 123.21875 L 263.84375 120.125 L 263.84375 117 L 257.625 117 L 251.40625 117 z M 251.40625 135.6875 L 251.40625 141.9375 L 251.40625 148.1875 L 248.3125 148.1875 L 245.21875 148.1875 L 245.21875 151.28125 L 245.21875 154.40625 L 248.3125 154.40625 L 251.40625 154.40625 L 251.40625 157.53125 L 251.40625 160.65625 L 254.53125 160.65625 L 257.625 160.65625 L 257.625 154.40625 L 257.625 148.1875 L 270.0625 148.1875 L 282.46875 148.1875 L 282.46875 145.0625 L 282.46875 141.9375 L 285.59375 141.9375 L 288.6875 141.9375 L 288.6875 145.0625 L 288.6875 148.1875 L 291.8125 148.1875 L 294.90625 148.1875 L 294.90625 138.8125 L 294.90625 129.46875 L 291.8125 129.46875 L 288.6875 129.46875 L 288.6875 132.59375 L 288.6875 135.6875 L 285.59375 135.6875 L 282.46875 135.6875 L 282.46875 132.59375 L 282.46875 129.46875 L 273.15625 129.46875 L 263.84375 129.46875 L 263.84375 132.59375 L 263.84375 135.6875 L 266.9375 135.6875 L 270.0625 135.6875 L 270.0625 138.8125 L 270.0625 141.9375 L 266.9375 141.9375 L 263.84375 141.9375 L 263.84375 138.8125 L 263.84375 135.6875 L 257.625 135.6875 L 251.40625 135.6875 z M 294.90625 148.1875 L 294.90625 151.28125 L 294.90625 154.40625 L 298 154.40625 L 301.125 154.40625 L 301.125 151.28125 L 301.125 148.1875 L 298 148.1875 L 294.90625 148.1875 z M 245.21875 154.40625 L 242.09375 154.40625 L 239 154.40625 L 239 157.53125 L 239 160.65625 L 242.09375 160.65625 L 245.21875 160.65625 L 245.21875 157.53125 L 245.21875 154.40625 z M 239 160.65625 L 235.875 160.65625 L 232.78125 160.65625 L 232.78125 163.75 L 232.78125 166.875 L 235.875 166.875 L 239 166.875 L 239 163.75 L 239 160.65625 z M 232.78125 166.875 L 229.6875 166.875 L 226.5625 166.875 L 226.5625 170 L 226.5625 173.125 L 223.46875 173.125 L 220.34375 173.125 L 220.34375 179.34375 L 220.34375 185.59375 L 232.78125 185.59375 L 245.21875 185.59375 L 245.21875 182.46875 L 245.21875 179.34375 L 248.3125 179.34375 L 251.40625 179.34375 L 251.40625 176.25 L 251.40625 173.125 L 245.21875 173.125 L 239 173.125 L 239 176.25 L 239 179.34375 L 235.875 179.34375 L 232.78125 179.34375 L 232.78125 173.125 L 232.78125 166.875 z M 251.40625 173.125 L 254.53125 173.125 L 257.625 173.125 L 257.625 170 L 257.625 166.875 L 254.53125 166.875 L 251.40625 166.875 L 251.40625 170 L 251.40625 173.125 z M 251.40625 179.34375 L 251.40625 182.46875 L 251.40625 185.59375 L 254.53125 185.59375 L 257.625 185.59375 L 257.625 182.46875 L 257.625 179.34375 L 254.53125 179.34375 L 251.40625 179.34375 z M 245.21875 135.6875 L 242.09375 135.6875 L 239 135.6875 L 239 138.8125 L 239 141.9375 L 242.09375 141.9375 L 245.21875 141.9375 L 245.21875 138.8125 L 245.21875 135.6875 z M 306.78125 136.28125 L 306.78125 145.625 L 306.78125 155 L 313 155 L 319.1875 155 L 319.1875 151.875 L 319.1875 148.75 L 316.09375 148.75 L 313 148.75 L 313 142.53125 L 313 136.28125 L 309.875 136.28125 L 306.78125 136.28125 z M 319.1875 148.75 L 322.3125 148.75 L 325.40625 148.75 L 325.40625 145.625 L 325.40625 142.53125 L 322.3125 142.53125 L 319.1875 142.53125 L 319.1875 145.625 L 319.1875 148.75 z M 325.40625 148.75 L 325.40625 151.875 L 325.40625 155 L 331.46875 155 C 332.99107 150.95504 334.28202 146.80393 335.28125 142.53125 L 331.625 142.53125 L 331.625 145.625 L 331.625 148.75 L 328.53125 148.75 L 325.40625 148.75 z M 325.40625 155 L 322.3125 155 L 319.1875 155 L 319.1875 158.09375 L 319.1875 161.21875 L 322.3125 161.21875 L 325.40625 161.21875 L 325.40625 158.09375 L 325.40625 155 z M 319.1875 161.21875 L 316.09375 161.21875 L 313 161.21875 L 313 164.34375 L 313 167.46875 L 316.09375 167.46875 L 319.1875 167.46875 L 319.1875 164.34375 L 319.1875 161.21875 z M 319.1875 167.46875 L 319.1875 170.5625 L 319.1875 173.6875 L 322.125 173.6875 C 323.4196 171.6583 324.63102 169.59313 325.78125 167.46875 L 325.40625 167.46875 L 319.1875 167.46875 z M 170.65625 141.9375 L 170.65625 163.75 L 170.65625 185.59375 L 192.40625 185.59375 L 214.15625 185.59375 L 214.15625 163.75 L 214.15625 141.9375 L 192.40625 141.9375 L 170.65625 141.9375 z M 138.46875 142.53125 C 138.96034 144.6333 139.5357 146.70072 140.15625 148.75 L 142.9375 148.75 L 146.0625 148.75 L 146.0625 145.625 L 146.0625 142.53125 L 139.84375 142.53125 L 138.46875 142.53125 z M 146.0625 148.75 L 146.0625 151.875 L 146.0625 155 L 142.9375 155 L 142.28125 155 C 143.07396 157.10631 143.91709 159.18208 144.84375 161.21875 L 146.0625 161.21875 L 152.25 161.21875 L 152.25 155 L 152.25 148.75 L 149.15625 148.75 L 146.0625 148.75 z M 152.25 148.75 L 155.375 148.75 L 158.46875 148.75 L 158.46875 155 L 158.46875 161.21875 L 155.375 161.21875 L 152.25 161.21875 L 152.25 167.46875 L 152.25 173.6875 L 158.46875 173.6875 L 164.6875 173.6875 L 164.6875 158.09375 L 164.6875 142.53125 L 158.46875 142.53125 L 152.25 142.53125 L 152.25 145.625 L 152.25 148.75 z M 176.875 148.1875 L 192.40625 148.1875 L 207.9375 148.1875 L 207.9375 163.75 L 207.9375 179.34375 L 192.40625 179.34375 L 176.875 179.34375 L 176.875 163.75 L 176.875 148.1875 z M 220.34375 148.1875 L 220.34375 154.40625 L 220.34375 160.65625 L 223.46875 160.65625 L 226.5625 160.65625 L 226.5625 154.40625 L 226.5625 148.1875 L 223.46875 148.1875 L 220.34375 148.1875 z M 183.09375 154.40625 L 183.09375 163.75 L 183.09375 173.125 L 192.40625 173.125 L 201.71875 173.125 L 201.71875 163.75 L 201.71875 154.40625 L 192.40625 154.40625 L 183.09375 154.40625 z M 263.84375 154.40625 L 263.84375 157.53125 L 263.84375 160.65625 L 266.9375 160.65625 L 270.0625 160.65625 L 270.0625 163.75 L 270.0625 166.875 L 266.9375 166.875 L 263.84375 166.875 L 263.84375 173.125 L 263.84375 179.34375 L 266.9375 179.34375 L 270.0625 179.34375 L 270.0625 176.25 L 270.0625 173.125 L 273.15625 173.125 L 276.28125 173.125 L 276.28125 176.25 L 276.28125 179.34375 L 273.15625 179.34375 L 270.0625 179.34375 L 270.0625 182.46875 L 270.0625 185.59375 L 276.28125 185.59375 L 282.46875 185.59375 L 282.46875 176.25 L 282.46875 166.875 L 279.375 166.875 L 276.28125 166.875 L 276.28125 163.75 L 276.28125 160.65625 L 279.375 160.65625 L 282.46875 160.65625 L 282.46875 157.53125 L 282.46875 154.40625 L 273.15625 154.40625 L 263.84375 154.40625 z M 282.46875 160.65625 L 282.46875 163.75 L 282.46875 166.875 L 291.8125 166.875 L 301.125 166.875 L 301.125 163.75 L 301.125 160.65625 L 291.8125 160.65625 L 282.46875 160.65625 z M 294.90625 179.34375 L 294.90625 182.46875 L 294.90625 185.59375 L 298 185.59375 L 301.125 185.59375 L 301.125 182.46875 L 301.125 179.34375 L 298 179.34375 L 294.90625 179.34375 z M 194.71875 191.03125 L 194.71875 197.25 L 194.71875 203.4375 L 197.84375 203.4375 L 200.96875 203.4375 L 200.96875 200.34375 L 200.96875 197.25 L 207.1875 197.25 L 213.4375 197.25 L 213.4375 194.125 L 213.4375 191.03125 L 204.09375 191.03125 L 194.71875 191.03125 z M 200.96875 203.4375 L 200.96875 206.5625 L 200.96875 209.65625 L 204.09375 209.65625 L 207.1875 209.65625 L 207.1875 206.5625 L 207.1875 203.4375 L 204.09375 203.4375 L 200.96875 203.4375 z M 200.96875 209.65625 L 197.84375 209.65625 L 194.71875 209.65625 L 194.71875 211.28125 C 196.76488 212.22154 198.85176 213.10141 200.96875 213.90625 L 200.96875 212.78125 L 200.96875 209.65625 z M 194.71875 209.65625 L 194.71875 206.5625 L 194.71875 203.4375 L 191.625 203.4375 L 188.5 203.4375 L 188.5 206.5625 L 188.5 208.15625 C 189.45219 208.67661 190.40453 209.16597 191.375 209.65625 L 191.625 209.65625 L 194.71875 209.65625 z M 188.5 203.4375 L 188.5 200.34375 L 188.5 197.25 L 185.375 197.25 L 182.25 197.25 L 182.25 200.34375 L 182.25 203.4375 L 185.375 203.4375 L 188.5 203.4375 z M 182.25 203.4375 L 180.71875 203.4375 C 181.22956 203.77961 181.73266 204.13576 182.25 204.46875 L 182.25 203.4375 z M 232.71875 191.03125 L 232.71875 197.25 L 232.71875 203.4375 L 235.84375 203.4375 L 238.96875 203.4375 L 238.96875 200.34375 L 238.96875 197.25 L 245.1875 197.25 L 251.4375 197.25 L 251.4375 194.125 L 251.4375 191.03125 L 242.09375 191.03125 L 232.71875 191.03125 z M 238.96875 203.4375 L 238.96875 206.5625 L 238.96875 209.65625 L 242.09375 209.65625 L 245.1875 209.65625 L 245.1875 206.5625 L 245.1875 203.4375 L 242.09375 203.4375 L 238.96875 203.4375 z M 238.96875 209.65625 L 235.84375 209.65625 L 232.71875 209.65625 L 232.71875 215.875 L 232.71875 220.375 C 234.10234 220.43118 235.47762 220.46875 236.875 220.46875 C 239.67215 220.46875 242.44781 220.34793 245.1875 220.125 L 245.1875 215.875 L 242.09375 215.875 L 238.96875 215.875 L 238.96875 212.78125 L 238.96875 209.65625 z M 232.71875 209.65625 L 232.71875 206.5625 L 232.71875 203.4375 L 229.625 203.4375 L 226.5 203.4375 L 226.5 206.5625 L 226.5 209.65625 L 229.625 209.65625 L 232.71875 209.65625 z M 226.5 203.4375 L 226.5 200.34375 L 226.5 197.25 L 223.375 197.25 L 220.25 197.25 L 220.25 200.34375 L 220.25 203.4375 L 223.375 203.4375 L 226.5 203.4375 z M 220.25 203.4375 L 217.15625 203.4375 L 214.03125 203.4375 L 214.03125 212.78125 L 214.03125 217.875 C 218.10499 218.81668 222.25421 219.505 226.5 219.9375 L 226.5 218.96875 L 226.5 215.875 L 223.375 215.875 L 220.25 215.875 L 220.25 209.65625 L 220.25 203.4375 z M 270.71875 191.03125 L 270.71875 197.25 L 270.71875 203.4375 L 273.84375 203.4375 L 276.96875 203.4375 L 276.96875 200.34375 L 276.96875 197.25 L 283.1875 197.25 L 289.4375 197.25 L 289.4375 194.125 L 289.4375 191.03125 L 280.09375 191.03125 L 270.71875 191.03125 z M 276.96875 203.4375 L 276.96875 206.5625 L 276.96875 209.65625 L 280.09375 209.65625 L 282.375 209.65625 C 282.64617 209.51925 282.91774 209.38936 283.1875 209.25 L 283.1875 206.5625 L 283.1875 203.4375 L 280.09375 203.4375 L 276.96875 203.4375 z M 276.96875 209.65625 L 273.84375 209.65625 L 270.71875 209.65625 L 270.71875 214.65625 C 272.83404 213.90452 274.92102 213.0735 276.96875 212.1875 L 276.96875 209.65625 z M 270.71875 209.65625 L 270.71875 206.5625 L 270.71875 203.4375 L 267.625 203.4375 L 264.5 203.4375 L 264.5 206.5625 L 264.5 209.65625 L 267.625 209.65625 L 270.71875 209.65625 z M 264.5 203.4375 L 264.5 200.34375 L 264.5 197.25 L 261.375 197.25 L 258.25 197.25 L 258.25 200.34375 L 258.25 203.4375 L 261.375 203.4375 L 264.5 203.4375 z M 258.25 203.4375 L 255.15625 203.4375 L 252.03125 203.4375 L 252.03125 212.78125 L 252.03125 219.34375 C 256.27879 218.70431 260.44296 217.77591 264.5 216.625 L 264.5 215.875 L 261.375 215.875 L 258.25 215.875 L 258.25 209.65625 L 258.25 203.4375 z M 206.625 215.875 C 206.81024 215.93302 207.0018 215.97427 207.1875 216.03125 L 207.1875 215.875 L 206.625 215.875 z "
         style="fill:#000000" />
      <path
         id="path1736"
         d="m 236.78125,13.4375 c -27.20888,-0.0055 -54.44198,10.348233 -75.1875,31.09375 -37.21281,37.212814 -40.9449,95.18225 -11.40625,136.6875 l -24.28125,24.3125 c -7.8655,-6.27663 -19.27236,-5.79014 -26.5625,1.5 l -83.1875,83.1875 c -7.8347456,7.83475 -7.8347456,20.4465 0,28.28125 l 21.8125,21.84375 c 7.834746,7.83475 20.446504,7.83475 28.28125,0 l 83.21875,-83.1875 c 7.2903,-7.2903 7.77707,-18.72823 1.5,-26.59375 L 175.25,206.28125 c 41.50526,29.53866 99.4747,25.80657 136.6875,-11.40625 41.49103,-41.49104 41.49103,-108.821469 0,-150.3125 -20.74552,-20.745515 -47.94737,-31.119475 -75.15625,-31.125 z m -2.125,17.71875 c 23.37625,-0.551438 46.92182,8.109319 64.75,25.9375 34.57586,34.575863 34.60711,90.67414 0.0312,125.25 -34.57585,34.57587 -90.73663,34.57587 -125.3125,0 -34.57587,-34.57585 -34.57586,-90.705386 0,-125.28125 16.74768,-16.747687 38.57174,-25.388232 60.53125,-25.90625 z"
         style="fill:#585858;fill-opacity:1;stroke:none;" />
    </g>
  </g>
</svg>
